<svg width="93" height="45" viewBox="0 0 93 45" fill="none" xmlns="http://www.w3.org/2000/svg">
<rect width="93" height="45" rx="10" fill="#575A5D"/>
<g clip-path="url(#clip0_251_4664)">
<path fill-rule="evenodd" clip-rule="evenodd" d="M23.9999 12.4C18.6959 12.4 14.3999 16.696 14.3999 22C14.3999 26.248 17.1479 29.836 20.9639 31.108C21.4439 31.192 21.6239 30.904 21.6239 30.652C21.6239 30.424 21.6119 29.668 21.6119 28.864C19.1999 29.308 18.5759 28.276 18.3839 27.736C18.2759 27.46 17.8079 26.608 17.3999 26.38C17.0639 26.2 16.5839 25.756 17.3879 25.744C18.1439 25.732 18.6839 26.44 18.8639 26.728C19.7279 28.18 21.1079 27.772 21.6599 27.52C21.7439 26.896 21.9959 26.476 22.2719 26.236C20.1359 25.996 17.9039 25.168 17.9039 21.496C17.9039 20.452 18.2759 19.588 18.8879 18.916C18.7919 18.676 18.4559 17.692 18.9839 16.372C18.9839 16.372 19.7879 16.12 21.6239 17.356C22.3919 17.14 23.2079 17.032 24.0239 17.032C24.8399 17.032 25.6559 17.14 26.4239 17.356C28.2599 16.108 29.0639 16.372 29.0639 16.372C29.5919 17.692 29.2559 18.676 29.1599 18.916C29.7719 19.588 30.1439 20.44 30.1439 21.496C30.1439 25.18 27.8999 25.996 25.7639 26.236C26.1119 26.536 26.4119 27.112 26.4119 28.012C26.4119 29.296 26.3999 30.328 26.3999 30.652C26.3999 30.904 26.5799 31.204 27.0599 31.108C28.9656 30.4646 30.6216 29.2398 31.7948 27.6059C32.968 25.9721 33.5993 24.0115 33.5999 22C33.5999 16.696 29.3039 12.4 23.9999 12.4Z" fill="white"/>
</g>
</svg>
